<svg width="20" height="20" viewBox="0 0 20 20" fill="none" xmlns="http://www.w3.org/2000/svg">
<g clip-path="url(#clip0_10929_1979)">
<path d="M9.1665 15.0003H10.8332V13.3337H9.1665V15.0003ZM9.99984 1.66699C5.39984 1.66699 1.6665 5.40033 1.6665 10.0003C1.6665 14.6003 5.39984 18.3337 9.99984 18.3337C14.5998 18.3337 18.3332 14.6003 18.3332 10.0003C18.3332 5.40033 14.5998 1.66699 9.99984 1.66699ZM9.99984 16.667C6.32484 16.667 3.33317 13.6753 3.33317 10.0003C3.33317 6.32533 6.32484 3.33366 9.99984 3.33366C13.6748 3.33366 16.6665 6.32533 16.6665 10.0003C16.6665 13.6753 13.6748 16.667 9.99984 16.667ZM9.99984 5.00033C8.15817 5.00033 6.6665 6.49199 6.6665 8.33366H8.33317C8.33317 7.41699 9.08317 6.66699 9.99984 6.66699C10.9165 6.66699 11.6665 7.41699 11.6665 8.33366C11.6665 10.0003 9.1665 9.79199 9.1665 12.5003H10.8332C10.8332 10.6253 13.3332 10.417 13.3332 8.33366C13.3332 6.49199 11.8415 5.00033 9.99984 5.00033Z" fill="#1c86fa"/>
</g>
<defs>
<clipPath id="clip0_10929_1979">
<rect width="20" height="20" fill="white"/>
</clipPath>
</defs>
</svg>