<svg width="500" height="500" viewBox="0 0 500 500" fill="none" xmlns="http://www.w3.org/2000/svg">
<path d="M238.718 0H261.309C317.729 0 357.98 9.27016 392.31 26.6602C425.802 43.3458 453.522 69.6899 471.89 102.29C490.22 134.89 500 173.132 500 226.772V273.232C500 326.822 490.21 365.091 471.89 397.671C453.523 430.271 425.793 456.608 392.29 473.272C357.98 490.742 317.709 499.99 261.289 499.99H238.699C182.269 499.99 142.03 490.742 107.7 473.272C74.1921 456.619 46.4628 430.279 28.1104 397.671C9.78035 365.081 0 326.842 0 273.232V226.743C0 173.153 9.78035 134.881 28.1104 102.261C46.4761 69.663 74.2018 43.3265 107.7 26.6602C142.03 9.27016 182.308 0 238.718 0Z" fill="#1C86FA"/>
<path d="M249.969 125C217.456 125.001 186.224 137.669 162.898 160.317C139.572 182.965 125.989 213.815 125.03 246.313H124.969V395.869C124.969 406.92 129.361 417.522 137.176 425.336C144.99 433.151 155.587 437.539 166.638 437.539C177.69 437.539 188.289 433.151 196.104 425.336C203.918 417.522 208.308 406.92 208.308 395.869V394.223C183.204 386.973 160.446 373.255 142.31 354.443C141.167 353.264 140.266 351.868 139.661 350.341C139.056 348.815 138.757 347.188 138.782 345.546C138.807 343.905 139.156 342.283 139.807 340.776C140.459 339.269 141.4 337.905 142.578 336.762C143.757 335.619 145.151 334.716 146.677 334.111C148.204 333.506 149.833 333.207 151.475 333.232C153.117 333.257 154.738 333.606 156.245 334.257C157.753 334.909 159.116 335.852 160.259 337.031C160.439 337.221 160.638 337.402 160.808 337.592H160.869L162.08 338.813L162.339 339.072L163.479 340.17C163.709 340.39 163.94 340.62 164.17 340.83L164.629 341.259C165.129 341.729 165.63 342.201 166.15 342.661H166.199L166.309 342.773C178.505 353.839 192.782 362.363 208.308 367.851V367.851C229.566 375.349 252.454 376.966 274.553 372.529C296.653 368.091 317.145 357.763 333.86 342.641C335.667 341.014 337.422 339.329 339.129 337.583C356.387 320.015 368.073 297.739 372.718 273.554C377.362 249.37 374.758 224.351 365.235 201.64C355.711 178.93 339.692 159.541 319.187 145.903C298.682 132.264 274.605 124.984 249.978 124.98L249.969 125Z" fill="white"/>
</svg>
